<?xml version="1.0" standalone="no"?>
<svg xmlns="http://www.w3.org/2000/svg" xmlns:xlink="http://www.w3.org/1999/xlink" width="1060pt" height="1050pt" viewBox="0.00 0.00 1060.00 1049.80">
<g id="graph0" class="graph" transform="translate(131.14986558989006,963.9348665651337) scale(0.7578582832552)" data-name="a-test.c.029t.einline">

<polygon fill="white" stroke="none" points="-4,4 -4,-1045.8 1056,-1045.8 1056,4 -4,4" style=""/>
<g id="clust1" class="cluster" data-name="cluster_fibonacci">

<polygon fill="none" stroke="black" stroke-dasharray="5,2" points="8,-8 8,-1033.8 666,-1033.8 666,-8 8,-8" style=""/>
<text text-anchor="middle" x="337" y="-1017.2" font-family="Times,serif" font-size="14.00" style="">fibonacci ()</text>
</g>
<g id="clust2" class="cluster" data-name="cluster_0_1">

<polygon fill="#e0e0e0" stroke="darkgreen" stroke-width="2" points="114,-216.2 114,-593.4 322,-593.4 322,-216.2 114,-216.2" style=""/>
<text text-anchor="middle" x="139.69" y="-576.8" font-family="Times,serif" font-size="14.00" style="">loop 1</text>
</g>
<g id="clust3" class="cluster" data-name="cluster_main">

<polygon fill="none" stroke="black" stroke-dasharray="5,2" points="674,-446.9 674,-1033.8 1044,-1033.8 1044,-446.9 674,-446.9" style=""/>
<text text-anchor="middle" x="859" y="-1017.2" font-family="Times,serif" font-size="14.00" style="">main ()</text>
</g>
<!-- fn_0_basic_block_6 -->
<g id="node1" class="node" pointer-events="visible" data-name="fn_0_basic_block_6">

<polygon fill="lightgrey" stroke="black" points="121.55,-385.7 121.55,-560.1 314.45,-560.1 314.45,-385.7 121.55,-385.7" style=""/>
<text text-anchor="start" x="129.55" y="-543.5" font-family="Times,serif" font-size="14.00" style="">&lt;bb 6&gt;:</text>
<polyline fill="none" stroke="black" points="121.55,-535.3 314.45,-535.3" style=""/>
<text text-anchor="start" x="129.55" y="-518.7" font-family="Times,serif" font-size="14.00" style=""># a_1 = PHI &lt;a_6(4), a_11(5)&gt;</text>
<polyline fill="none" stroke="black" points="121.55,-510.5 314.45,-510.5" style=""/>
<text text-anchor="start" x="129.55" y="-493.9" font-family="Times,serif" font-size="14.00" style=""># b_2 = PHI &lt;b_7(4), b_12(5)&gt;</text>
<polyline fill="none" stroke="black" points="121.55,-485.7 314.45,-485.7" style=""/>
<text text-anchor="start" x="129.55" y="-469.1" font-family="Times,serif" font-size="14.00" style=""># i_3 = PHI &lt;i_8(4), i_13(5)&gt;</text>
<polyline fill="none" stroke="black" points="121.55,-460.9 314.45,-460.9" style=""/>
<text text-anchor="start" x="129.55" y="-444.3" font-family="Times,serif" font-size="14.00" style="">if (i_3 &lt;= n_5(D))</text>
<text text-anchor="start" x="129.55" y="-427.5" font-family="Times,serif" font-size="14.00" style="">  goto &lt;bb 5&gt;; [INV]</text>
<text text-anchor="start" x="129.55" y="-410.7" font-family="Times,serif" font-size="14.00" style="">else</text>
<text text-anchor="start" x="129.55" y="-393.9" font-family="Times,serif" font-size="14.00" style="">  goto &lt;bb 7&gt;; [INV]</text>
</g>
<!-- fn_0_basic_block_5 -->
<g id="node2" class="node" pointer-events="visible" data-name="fn_0_basic_block_5">

<polygon fill="lightgrey" stroke="black" points="158.95,-224.7 158.95,-348.7 277.05,-348.7 277.05,-224.7 158.95,-224.7" style=""/>
<text text-anchor="start" x="166.95" y="-332.1" font-family="Times,serif" font-size="14.00" style="">&lt;bb 5&gt;:</text>
<polyline fill="none" stroke="black" points="158.95,-323.9 277.05,-323.9" style=""/>
<text text-anchor="start" x="166.95" y="-307.3" font-family="Times,serif" font-size="14.00" style="">c_10 = a_1 + b_2;</text>
<polyline fill="none" stroke="black" points="158.95,-299.1 277.05,-299.1" style=""/>
<text text-anchor="start" x="166.95" y="-282.5" font-family="Times,serif" font-size="14.00" style="">a_11 = b_2;</text>
<polyline fill="none" stroke="black" points="158.95,-274.3 277.05,-274.3" style=""/>
<text text-anchor="start" x="166.95" y="-257.7" font-family="Times,serif" font-size="14.00" style="">b_12 = c_10;</text>
<polyline fill="none" stroke="black" points="158.95,-249.5 277.05,-249.5" style=""/>
<text text-anchor="start" x="166.95" y="-232.9" font-family="Times,serif" font-size="14.00" style="">i_13 = i_3 + 1;</text>
</g>
<!-- fn_0_basic_block_6&#45;&gt;fn_0_basic_block_5 -->
<g id="edge7" class="edge" data-name="fn_0_basic_block_6-&gt;fn_0_basic_block_5">

<path fill="none" stroke="black" stroke-width="2" d="M218,-385.2C218,-373.82 218,-368.52 218,-360.65" style=""/>
<polygon fill="black" stroke="black" stroke-width="2" points="221.5,-362.23 218,-352.23 214.5,-362.23 221.5,-362.23" style=""/>
</g>
<!-- fn_0_basic_block_7 -->
<g id="node8" class="node" pointer-events="visible" data-name="fn_0_basic_block_7">

<polygon fill="lightgrey" stroke="black" points="36.11,-261.9 36.11,-311.5 105.89,-311.5 105.89,-261.9 36.11,-261.9" style=""/>
<text text-anchor="start" x="44.11" y="-294.9" font-family="Times,serif" font-size="14.00" style="">&lt;bb 7&gt;:</text>
<polyline fill="none" stroke="black" points="36.11,-286.7 105.89,-286.7" style=""/>
<text text-anchor="start" x="44.11" y="-270.1" font-family="Times,serif" font-size="14.00" style="">_9 = b_2;</text>
</g>
<!-- fn_0_basic_block_6&#45;&gt;fn_0_basic_block_7 -->
<g id="edge8" class="edge" data-name="fn_0_basic_block_6-&gt;fn_0_basic_block_7">

<path fill="none" stroke="black" stroke-width="2" d="M218,-385.2C218,-334.6 153.47,-375.08 110,-349.2 93.43,-339.33 78.04,-337.08 72.85,-323.84" style=""/>
<polygon fill="black" stroke="black" stroke-width="2" points="76.59,-324.98 71.5,-315.69 69.68,-326.12 76.59,-324.98" style=""/>
</g>
<!-- fn_0_basic_block_5&#45;&gt;fn_0_basic_block_6 -->
<g id="edge6" class="edge" data-name="fn_0_basic_block_5-&gt;fn_0_basic_block_6">

<path fill="none" stroke="blue" stroke-width="2" stroke-dasharray="1,5" d="M218,-223.7C218,-197.45 258.28,-206.35 277.05,-224.7 286.95,-234.38 276.78,-336.38 282,-349.2 290.12,-369.15 306.72,-365.09 314.45,-385.2 317.93,-394.26 321.27,-553 314.45,-559.9 302.08,-572.4 245.1,-579.49 225.02,-569.8" style=""/>
<polygon fill="blue" stroke="blue" stroke-width="2" points="228.82,-568.96 219.88,-563.28 223.32,-573.29 228.82,-568.96" style=""/>
</g>
<!-- fn_0_basic_block_0 -->
<g id="node3" class="node" pointer-events="visible" data-name="fn_0_basic_block_0">

<polygon fill="white" stroke="black" points="218,-1001 156.75,-983 218,-965 279.25,-983 218,-1001" style=""/>
<polyline fill="none" stroke="black" points="168.26,-986.38 168.26,-979.62" style=""/>
<polyline fill="none" stroke="black" points="206.49,-968.38 229.51,-968.38" style=""/>
<polyline fill="none" stroke="black" points="267.74,-979.62 267.74,-986.38" style=""/>
<polyline fill="none" stroke="black" points="229.51,-997.62 206.49,-997.62" style=""/>
<text text-anchor="middle" x="218" y="-978.8" font-family="Times,serif" font-size="14.00" style="">ENTRY</text>
</g>
<!-- fn_0_basic_block_1 -->
<g id="node4" class="node" pointer-events="visible" data-name="fn_0_basic_block_1">

<polygon fill="white" stroke="black" points="122,-52 75.09,-34 122,-16 168.91,-34 122,-52" style=""/>
<polyline fill="none" stroke="black" points="86.3,-38.3 86.3,-29.7" style=""/>
<polyline fill="none" stroke="black" points="110.8,-20.3 133.2,-20.3" style=""/>
<polyline fill="none" stroke="black" points="157.7,-29.7 157.7,-38.3" style=""/>
<polyline fill="none" stroke="black" points="133.2,-47.7 110.8,-47.7" style=""/>
<text text-anchor="middle" x="122" y="-29.8" font-family="Times,serif" font-size="14.00" style="">EXIT</text>
</g>
<!-- fn_0_basic_block_0&#45;&gt;fn_0_basic_block_1 -->
<!-- fn_0_basic_block_2 -->
<g id="node5" class="node" pointer-events="visible" data-name="fn_0_basic_block_2">

<polygon fill="lightgrey" stroke="black" points="151.36,-791.7 151.36,-891.7 284.64,-891.7 284.64,-791.7 151.36,-791.7" style=""/>
<text text-anchor="start" x="159.36" y="-875.1" font-family="Times,serif" font-size="14.00" style="">&lt;bb 2&gt;:</text>
<polyline fill="none" stroke="black" points="151.36,-866.9 284.64,-866.9" style=""/>
<text text-anchor="start" x="159.36" y="-850.3" font-family="Times,serif" font-size="14.00" style="">if (n_5(D) &lt;= 1)</text>
<text text-anchor="start" x="159.36" y="-833.5" font-family="Times,serif" font-size="14.00" style="">  goto &lt;bb 3&gt;; [INV]</text>
<text text-anchor="start" x="159.36" y="-816.7" font-family="Times,serif" font-size="14.00" style="">else</text>
<text text-anchor="start" x="159.36" y="-799.9" font-family="Times,serif" font-size="14.00" style="">  goto &lt;bb 4&gt;; [INV]</text>
</g>
<!-- fn_0_basic_block_0&#45;&gt;fn_0_basic_block_2 -->
<g id="edge1" class="edge" data-name="fn_0_basic_block_0-&gt;fn_0_basic_block_2">

<path fill="none" stroke="blue" stroke-width="2" d="M218,-965C218,-937.01 218,-927.3 218,-904.03" style=""/>
<polygon fill="blue" stroke="blue" stroke-width="2" points="221.5,-905.73 218,-895.73 214.5,-905.73 221.5,-905.73" style=""/>
</g>
<!-- fn_0_basic_block_3 -->
<g id="node6" class="node" pointer-events="visible" data-name="fn_0_basic_block_3">

<polygon fill="lightgrey" stroke="black" points="329.53,-241.1 329.53,-332.3 658.47,-332.3 658.47,-241.1 329.53,-241.1" style=""/>
<text text-anchor="start" x="337.53" y="-315.7" font-family="Times,serif" font-size="14.00" style="">&lt;bb 3&gt;:</text>
<polyline fill="none" stroke="black" points="329.53,-307.5 658.47,-307.5" style=""/>
<text text-anchor="start" x="337.53" y="-290.9" font-family="Times,serif" font-size="14.00" style="">_14 = n_5(D);</text>
<polyline fill="none" stroke="black" points="329.53,-282.7 658.47,-282.7" style=""/>
<text text-anchor="start" x="337.53" y="-266.1" font-family="Times,serif" font-size="14.00" style="">// predicted unlikely by early return (on trees) predictor.</text>
<text text-anchor="start" x="337.53" y="-249.3" font-family="Times,serif" font-size="14.00" style="">goto &lt;bb 8&gt;; [INV]</text>
</g>
<!-- fn_0_basic_block_2&#45;&gt;fn_0_basic_block_3 -->
<g id="edge2" class="edge" data-name="fn_0_basic_block_2-&gt;fn_0_basic_block_3">

<path fill="none" stroke="black" stroke-width="2" d="M218,-790.7C218,-745.35 263.08,-754.9 290,-718.4 402.57,-565.76 490.42,-528.7 493.89,-345.14" style=""/>
<polygon fill="black" stroke="black" stroke-width="2" points="497.38,-346.76 493.97,-336.73 490.38,-346.69 497.38,-346.76" style=""/>
</g>
<!-- fn_0_basic_block_4 -->
<g id="node7" class="node" pointer-events="visible" data-name="fn_0_basic_block_4">

<polygon fill="lightgrey" stroke="black" points="154.86,-601.9 154.86,-717.9 281.14,-717.9 281.14,-601.9 154.86,-601.9" style=""/>
<text text-anchor="start" x="162.86" y="-701.3" font-family="Times,serif" font-size="14.00" style="">&lt;bb 4&gt;:</text>
<polyline fill="none" stroke="black" points="154.86,-693.1 281.14,-693.1" style=""/>
<text text-anchor="start" x="162.86" y="-676.5" font-family="Times,serif" font-size="14.00" style="">a_6 = 0;</text>
<polyline fill="none" stroke="black" points="154.86,-668.3 281.14,-668.3" style=""/>
<text text-anchor="start" x="162.86" y="-651.7" font-family="Times,serif" font-size="14.00" style="">b_7 = 1;</text>
<polyline fill="none" stroke="black" points="154.86,-643.5 281.14,-643.5" style=""/>
<text text-anchor="start" x="162.86" y="-626.9" font-family="Times,serif" font-size="14.00" style="">i_8 = 2;</text>
<text text-anchor="start" x="162.86" y="-610.1" font-family="Times,serif" font-size="14.00" style="">goto &lt;bb 6&gt;; [INV]</text>
</g>
<!-- fn_0_basic_block_2&#45;&gt;fn_0_basic_block_4 -->
<g id="edge3" class="edge" data-name="fn_0_basic_block_2-&gt;fn_0_basic_block_4">

<path fill="none" stroke="black" stroke-width="2" d="M218,-790.7C218,-762.71 218,-753 218,-729.73" style=""/>
<polygon fill="black" stroke="black" stroke-width="2" points="221.5,-731.43 218,-721.43 214.5,-731.43 221.5,-731.43" style=""/>
</g>
<!-- fn_0_basic_block_8 -->
<g id="node9" class="node" pointer-events="visible" data-name="fn_0_basic_block_8">

<polygon fill="lightgrey" stroke="black" points="36.05,-88.5 36.05,-187.7 207.95,-187.7 207.95,-88.5 36.05,-88.5" style=""/>
<text text-anchor="start" x="44.05" y="-171.1" font-family="Times,serif" font-size="14.00" style="">&lt;bb 8&gt;:</text>
<polyline fill="none" stroke="black" points="36.05,-162.9 207.95,-162.9" style=""/>
<text text-anchor="start" x="44.05" y="-146.3" font-family="Times,serif" font-size="14.00" style=""># _4 = PHI &lt;_14(3), _9(7)&gt;</text>
<polyline fill="none" stroke="black" points="36.05,-138.1 207.95,-138.1" style=""/>
<text text-anchor="start" x="44.05" y="-121.5" font-family="Times,serif" font-size="14.00" style="">&lt;L5&gt;:</text>
<polyline fill="none" stroke="black" points="36.05,-113.3 207.95,-113.3" style=""/>
<text text-anchor="start" x="44.05" y="-96.7" font-family="Times,serif" font-size="14.00" style="">return _4;</text>
</g>
<!-- fn_0_basic_block_3&#45;&gt;fn_0_basic_block_8 -->
<g id="edge4" class="edge" data-name="fn_0_basic_block_3-&gt;fn_0_basic_block_8">

<path fill="none" stroke="blue" stroke-width="2" d="M494,-239.7C494,-201.4 180.53,-225.18 129.1,-197.06" style=""/>
<polygon fill="blue" stroke="blue" stroke-width="2" points="132.88,-196.18 123.89,-190.56 127.41,-200.56 132.88,-196.18" style=""/>
</g>
<!-- fn_0_basic_block_4&#45;&gt;fn_0_basic_block_6 -->
<g id="edge5" class="edge" data-name="fn_0_basic_block_4-&gt;fn_0_basic_block_6">

<path fill="none" stroke="blue" stroke-width="2" d="M218,-601.4C218,-587.9 218,-581.99 218,-572.29" style=""/>
<polygon fill="blue" stroke="blue" stroke-width="2" points="221.5,-573.93 218,-563.93 214.5,-573.93 221.5,-573.93" style=""/>
</g>
<!-- fn_0_basic_block_7&#45;&gt;fn_0_basic_block_8 -->
<g id="edge9" class="edge" data-name="fn_0_basic_block_7-&gt;fn_0_basic_block_8">

<path fill="none" stroke="blue" stroke-width="2" d="M71,-260.7C71,-225.46 111.81,-226.78 120.42,-199.25" style=""/>
<polygon fill="blue" stroke="blue" stroke-width="2" points="123.62,-201.59 121.57,-191.2 116.69,-200.6 123.62,-201.59" style=""/>
</g>
<!-- fn_0_basic_block_8&#45;&gt;fn_0_basic_block_1 -->
<g id="edge10" class="edge" data-name="fn_0_basic_block_8-&gt;fn_0_basic_block_1">

<path fill="none" stroke="black" stroke-width="2" d="M122,-88C122,-76.62 122,-71.32 122,-63.45" style=""/>
<polygon fill="black" stroke="black" stroke-width="2" points="125.5,-65.03 122,-55.03 118.5,-65.03 125.5,-65.03" style=""/>
</g>
<!-- fn_1_basic_block_0 -->
<g id="node10" class="node" pointer-events="visible" data-name="fn_1_basic_block_0">

<polygon fill="white" stroke="black" points="869,-1001 807.75,-983 869,-965 930.25,-983 869,-1001" style=""/>
<polyline fill="none" stroke="black" points="819.26,-986.38 819.26,-979.62" style=""/>
<polyline fill="none" stroke="black" points="857.49,-968.38 880.51,-968.38" style=""/>
<polyline fill="none" stroke="black" points="918.74,-979.62 918.74,-986.38" style=""/>
<polyline fill="none" stroke="black" points="880.51,-997.62 857.49,-997.62" style=""/>
<text text-anchor="middle" x="869" y="-978.8" font-family="Times,serif" font-size="14.00" style="">ENTRY</text>
</g>
<!-- fn_1_basic_block_1 -->
<g id="node11" class="node" pointer-events="visible" data-name="fn_1_basic_block_1">

<polygon fill="white" stroke="black" points="869,-490.9 822.09,-472.9 869,-454.9 915.91,-472.9 869,-490.9" style=""/>
<polyline fill="none" stroke="black" points="833.3,-477.2 833.3,-468.6" style=""/>
<polyline fill="none" stroke="black" points="857.8,-459.2 880.2,-459.2" style=""/>
<polyline fill="none" stroke="black" points="904.7,-468.6 904.7,-477.2" style=""/>
<polyline fill="none" stroke="black" points="880.2,-486.6 857.8,-486.6" style=""/>
<text text-anchor="middle" x="869" y="-468.7" font-family="Times,serif" font-size="14.00" style="">EXIT</text>
</g>
<!-- fn_1_basic_block_0&#45;&gt;fn_1_basic_block_1 -->
<!-- fn_1_basic_block_2 -->
<g id="node12" class="node" pointer-events="visible" data-name="fn_1_basic_block_2">

<polygon fill="lightgrey" stroke="black" points="702.09,-754.9 702.09,-928.5 1035.91,-928.5 1035.91,-754.9 702.09,-754.9" style=""/>
<text text-anchor="start" x="710.09" y="-911.9" font-family="Times,serif" font-size="14.00" style="">&lt;bb 2&gt;:</text>
<polyline fill="none" stroke="black" points="702.09,-903.7 1035.91,-903.7" style=""/>
<text text-anchor="start" x="710.09" y="-887.1" font-family="Times,serif" font-size="14.00" style="">n_3 = 10;</text>
<polyline fill="none" stroke="black" points="702.09,-878.9 1035.91,-878.9" style=""/>
<text text-anchor="start" x="710.09" y="-862.3" font-family="Times,serif" font-size="14.00" style="">_1 = fibonacci (n_3);</text>
<polyline fill="none" stroke="black" points="702.09,-854.1 1035.91,-854.1" style=""/>
<text text-anchor="start" x="710.09" y="-837.5" font-family="Times,serif" font-size="14.00" style="">printf ("The %dth Fibonacci number is: %d\n", n_3, _1);</text>
<polyline fill="none" stroke="black" points="702.09,-829.3 1035.91,-829.3" style=""/>
<text text-anchor="start" x="710.09" y="-812.7" font-family="Times,serif" font-size="14.00" style="">_2 = n_3 * n_3;</text>
<polyline fill="none" stroke="black" points="702.09,-804.5 1035.91,-804.5" style=""/>
<text text-anchor="start" x="710.09" y="-787.9" font-family="Times,serif" font-size="14.00" style="">printf ("SQUARE(%d) = %d\n", n_3, _2);</text>
<polyline fill="none" stroke="black" points="702.09,-779.7 1035.91,-779.7" style=""/>
<text text-anchor="start" x="710.09" y="-763.1" font-family="Times,serif" font-size="14.00" style="">_8 = 0;</text>
</g>
<!-- fn_1_basic_block_0&#45;&gt;fn_1_basic_block_2 -->
<g id="edge12" class="edge" data-name="fn_1_basic_block_0-&gt;fn_1_basic_block_2">

<path fill="none" stroke="blue" stroke-width="2" d="M869,-965C869,-953.62 869,-948.32 869,-940.45" style=""/>
<polygon fill="blue" stroke="blue" stroke-width="2" points="872.5,-942.03 869,-932.03 865.5,-942.03 872.5,-942.03" style=""/>
</g>
<!-- fn_1_basic_block_3 -->
<g id="node13" class="node" pointer-events="visible" data-name="fn_1_basic_block_3">

<polygon fill="lightgrey" stroke="black" points="833.59,-622.7 833.59,-697.1 904.41,-697.1 904.41,-622.7 833.59,-622.7" style=""/>
<text text-anchor="start" x="841.59" y="-680.5" font-family="Times,serif" font-size="14.00" style="">&lt;bb 3&gt;:</text>
<polyline fill="none" stroke="black" points="833.59,-672.3 904.41,-672.3" style=""/>
<text text-anchor="start" x="841.59" y="-655.7" font-family="Times,serif" font-size="14.00" style="">&lt;L0&gt;:</text>
<polyline fill="none" stroke="black" points="833.59,-647.5 904.41,-647.5" style=""/>
<text text-anchor="start" x="841.59" y="-630.9" font-family="Times,serif" font-size="14.00" style="">return _8;</text>
</g>
<!-- fn_1_basic_block_2&#45;&gt;fn_1_basic_block_3 -->
<g id="edge13" class="edge" data-name="fn_1_basic_block_2-&gt;fn_1_basic_block_3">

<path fill="none" stroke="blue" stroke-width="2" d="M869,-754.4C869,-733.6 869,-725.73 869,-709.37" style=""/>
<polygon fill="blue" stroke="blue" stroke-width="2" points="872.5,-710.93 869,-700.93 865.5,-710.93 872.5,-710.93" style=""/>
</g>
<!-- fn_1_basic_block_3&#45;&gt;fn_1_basic_block_1 -->
<g id="edge14" class="edge" data-name="fn_1_basic_block_3-&gt;fn_1_basic_block_1">

<path fill="none" stroke="black" stroke-width="2" d="M869,-621.9C869,-568.07 869,-551.86 869,-503.17" style=""/>
<polygon fill="black" stroke="black" stroke-width="2" points="872.5,-504.93 869,-494.93 865.5,-504.93 872.5,-504.93" style=""/>
</g>
</g>
</svg>