<?xml version="1.0" standalone="no"?>
<svg xmlns="http://www.w3.org/2000/svg" xmlns:xlink="http://www.w3.org/1999/xlink" width="1002pt" height="951pt" viewBox="0.00 0.00 1002.00 950.60">
<g id="graph0" class="graph" transform="translate(102.80524472063883,885.5228311601398) scale(0.757858283255199)" data-name="a-test.c.015t.cfg">

<polygon fill="white" stroke="none" points="-4,4 -4,-946.6 998,-946.6 998,4 -4,4" style=""/>
<g id="clust1" class="cluster" data-name="cluster_fibonacci">

<polygon fill="none" stroke="black" stroke-dasharray="5,2" points="8,-8 8,-934.6 622,-934.6 622,-8 8,-8" style=""/>
<text text-anchor="middle" x="315" y="-918" font-family="Times,serif" font-size="14.00" style="">fibonacci ()</text>
</g>
<g id="clust2" class="cluster" data-name="cluster_0_1">

<polygon fill="#e0e0e0" stroke="darkgreen" stroke-width="2" points="128,-191.4 128,-494.2 278,-494.2 278,-191.4 128,-191.4" style=""/>
<text text-anchor="middle" x="153.69" y="-477.6" font-family="Times,serif" font-size="14.00" style="">loop 1</text>
</g>
<g id="clust3" class="cluster" data-name="cluster_main">

<polygon fill="none" stroke="black" stroke-dasharray="5,2" points="630,-384.9 630,-934.6 986,-934.6 986,-384.9 630,-384.9" style=""/>
<text text-anchor="middle" x="808" y="-918" font-family="Times,serif" font-size="14.00" style="">main ()</text>
</g>
<!-- fn_0_basic_block_6 -->
<g id="node1" class="node" pointer-events="visible" data-name="fn_0_basic_block_6">

<polygon fill="lightgrey" stroke="black" points="136.36,-360.9 136.36,-460.9 269.64,-460.9 269.64,-360.9 136.36,-360.9" style=""/>
<text text-anchor="start" x="144.36" y="-444.3" font-family="Times,serif" font-size="14.00" style="">&lt;bb 6&gt;:</text>
<polyline fill="none" stroke="black" points="136.36,-436.1 269.64,-436.1" style=""/>
<text text-anchor="start" x="144.36" y="-419.5" font-family="Times,serif" font-size="14.00" style="">if (i &lt;= n)</text>
<text text-anchor="start" x="144.36" y="-402.7" font-family="Times,serif" font-size="14.00" style="">  goto &lt;bb 5&gt;; [INV]</text>
<text text-anchor="start" x="144.36" y="-385.9" font-family="Times,serif" font-size="14.00" style="">else</text>
<text text-anchor="start" x="144.36" y="-369.1" font-family="Times,serif" font-size="14.00" style="">  goto &lt;bb 7&gt;; [INV]</text>
</g>
<!-- fn_0_basic_block_5 -->
<g id="node2" class="node" pointer-events="visible" data-name="fn_0_basic_block_5">

<polygon fill="lightgrey" stroke="black" points="168.45,-199.9 168.45,-323.9 237.55,-323.9 237.55,-199.9 168.45,-199.9" style=""/>
<text text-anchor="start" x="176.45" y="-307.3" font-family="Times,serif" font-size="14.00" style="">&lt;bb 5&gt;:</text>
<polyline fill="none" stroke="black" points="168.45,-299.1 237.55,-299.1" style=""/>
<text text-anchor="start" x="176.45" y="-282.5" font-family="Times,serif" font-size="14.00" style="">c = a + b;</text>
<polyline fill="none" stroke="black" points="168.45,-274.3 237.55,-274.3" style=""/>
<text text-anchor="start" x="176.45" y="-257.7" font-family="Times,serif" font-size="14.00" style="">a = b;</text>
<polyline fill="none" stroke="black" points="168.45,-249.5 237.55,-249.5" style=""/>
<text text-anchor="start" x="176.45" y="-232.9" font-family="Times,serif" font-size="14.00" style="">b = c;</text>
<polyline fill="none" stroke="black" points="168.45,-224.7 237.55,-224.7" style=""/>
<text text-anchor="start" x="176.45" y="-208.1" font-family="Times,serif" font-size="14.00" style="">i = i + 1;</text>
</g>
<!-- fn_0_basic_block_6&#45;&gt;fn_0_basic_block_5 -->
<g id="edge7" class="edge" data-name="fn_0_basic_block_6-&gt;fn_0_basic_block_5">

<path fill="none" stroke="black" stroke-width="2" d="M203,-360.4C203,-349.02 203,-343.72 203,-335.85" style=""/>
<polygon fill="black" stroke="black" stroke-width="2" points="206.5,-337.43 203,-327.43 199.5,-337.43 206.5,-337.43" style=""/>
</g>
<!-- fn_0_basic_block_7 -->
<g id="node8" class="node" pointer-events="visible" data-name="fn_0_basic_block_7">

<polygon fill="lightgrey" stroke="black" points="36.3,-237.1 36.3,-286.7 119.7,-286.7 119.7,-237.1 36.3,-237.1" style=""/>
<text text-anchor="start" x="44.3" y="-270.1" font-family="Times,serif" font-size="14.00" style="">&lt;bb 7&gt;:</text>
<polyline fill="none" stroke="black" points="36.3,-261.9 119.7,-261.9" style=""/>
<text text-anchor="start" x="44.3" y="-245.3" font-family="Times,serif" font-size="14.00" style="">D.2361 = b;</text>
</g>
<!-- fn_0_basic_block_6&#45;&gt;fn_0_basic_block_7 -->
<g id="edge8" class="edge" data-name="fn_0_basic_block_6-&gt;fn_0_basic_block_7">

<path fill="none" stroke="black" stroke-width="2" d="M203,-360.4C203,-321.82 156.91,-344.54 124,-324.4 105.57,-313.12 86.12,-313.39 79.98,-298.99" style=""/>
<polygon fill="black" stroke="black" stroke-width="2" points="83.73,-300.11 78.53,-290.88 76.84,-301.34 83.73,-300.11" style=""/>
</g>
<!-- fn_0_basic_block_5&#45;&gt;fn_0_basic_block_6 -->
<g id="edge6" class="edge" data-name="fn_0_basic_block_5-&gt;fn_0_basic_block_6">

<path fill="none" stroke="blue" stroke-width="2" stroke-dasharray="1,5" d="M203,-198.9C203,-183.54 226.61,-189.12 237.55,-199.9 247.42,-209.62 238.38,-311.35 243,-324.4 249.64,-343.16 263.41,-341.5 269.64,-360.4 273.14,-371 277.48,-452.94 269.64,-460.9 261.76,-468.9 227.55,-473.85 211.45,-469.34" style=""/>
<polygon fill="blue" stroke="blue" stroke-width="2" points="215.09,-467.88 205.27,-463.9 210.46,-473.14 215.09,-467.88" style=""/>
</g>
<!-- fn_0_basic_block_0 -->
<g id="node3" class="node" pointer-events="visible" data-name="fn_0_basic_block_0">

<polygon fill="white" stroke="black" points="203,-901.8 141.75,-883.8 203,-865.8 264.25,-883.8 203,-901.8" style=""/>
<polyline fill="none" stroke="black" points="153.26,-887.18 153.26,-880.42" style=""/>
<polyline fill="none" stroke="black" points="191.49,-869.18 214.51,-869.18" style=""/>
<polyline fill="none" stroke="black" points="252.74,-880.42 252.74,-887.18" style=""/>
<polyline fill="none" stroke="black" points="214.51,-898.42 191.49,-898.42" style=""/>
<text text-anchor="middle" x="203" y="-879.6" font-family="Times,serif" font-size="14.00" style="">ENTRY</text>
</g>
<!-- fn_0_basic_block_1 -->
<g id="node4" class="node" pointer-events="visible" data-name="fn_0_basic_block_1">

<polygon fill="white" stroke="black" points="85,-52 38.09,-34 85,-16 131.91,-34 85,-52" style=""/>
<polyline fill="none" stroke="black" points="49.3,-38.3 49.3,-29.7" style=""/>
<polyline fill="none" stroke="black" points="73.8,-20.3 96.2,-20.3" style=""/>
<polyline fill="none" stroke="black" points="120.7,-29.7 120.7,-38.3" style=""/>
<polyline fill="none" stroke="black" points="96.2,-47.7 73.8,-47.7" style=""/>
<text text-anchor="middle" x="85" y="-29.8" font-family="Times,serif" font-size="14.00" style="">EXIT</text>
</g>
<!-- fn_0_basic_block_0&#45;&gt;fn_0_basic_block_1 -->
<!-- fn_0_basic_block_2 -->
<g id="node5" class="node" pointer-events="visible" data-name="fn_0_basic_block_2">

<polygon fill="lightgrey" stroke="black" points="136.36,-692.5 136.36,-792.5 269.64,-792.5 269.64,-692.5 136.36,-692.5" style=""/>
<text text-anchor="start" x="144.36" y="-775.9" font-family="Times,serif" font-size="14.00" style="">&lt;bb 2&gt;:</text>
<polyline fill="none" stroke="black" points="136.36,-767.7 269.64,-767.7" style=""/>
<text text-anchor="start" x="144.36" y="-751.1" font-family="Times,serif" font-size="14.00" style="">if (n &lt;= 1)</text>
<text text-anchor="start" x="144.36" y="-734.3" font-family="Times,serif" font-size="14.00" style="">  goto &lt;bb 3&gt;; [INV]</text>
<text text-anchor="start" x="144.36" y="-717.5" font-family="Times,serif" font-size="14.00" style="">else</text>
<text text-anchor="start" x="144.36" y="-700.7" font-family="Times,serif" font-size="14.00" style="">  goto &lt;bb 4&gt;; [INV]</text>
</g>
<!-- fn_0_basic_block_0&#45;&gt;fn_0_basic_block_2 -->
<g id="edge1" class="edge" data-name="fn_0_basic_block_0-&gt;fn_0_basic_block_2">

<path fill="none" stroke="blue" stroke-width="2" d="M203,-865.8C203,-837.81 203,-828.1 203,-804.83" style=""/>
<polygon fill="blue" stroke="blue" stroke-width="2" points="206.5,-806.53 203,-796.53 199.5,-806.53 206.5,-806.53" style=""/>
</g>
<!-- fn_0_basic_block_3 -->
<g id="node6" class="node" pointer-events="visible" data-name="fn_0_basic_block_3">

<polygon fill="lightgrey" stroke="black" points="285.53,-216.3 285.53,-307.5 614.47,-307.5 614.47,-216.3 285.53,-216.3" style=""/>
<text text-anchor="start" x="293.53" y="-290.9" font-family="Times,serif" font-size="14.00" style="">&lt;bb 3&gt;:</text>
<polyline fill="none" stroke="black" points="285.53,-282.7 614.47,-282.7" style=""/>
<text text-anchor="start" x="293.53" y="-266.1" font-family="Times,serif" font-size="14.00" style="">D.2361 = n;</text>
<polyline fill="none" stroke="black" points="285.53,-257.9 614.47,-257.9" style=""/>
<text text-anchor="start" x="293.53" y="-241.3" font-family="Times,serif" font-size="14.00" style="">// predicted unlikely by early return (on trees) predictor.</text>
<text text-anchor="start" x="293.53" y="-224.5" font-family="Times,serif" font-size="14.00" style="">goto &lt;bb 8&gt;; [INV]</text>
</g>
<!-- fn_0_basic_block_2&#45;&gt;fn_0_basic_block_3 -->
<g id="edge2" class="edge" data-name="fn_0_basic_block_2-&gt;fn_0_basic_block_3">

<path fill="none" stroke="black" stroke-width="2" d="M203,-691.5C203,-646.15 247.61,-655.35 275,-619.2 368.29,-496.08 446.11,-468.55 449.86,-320.26" style=""/>
<polygon fill="black" stroke="black" stroke-width="2" points="453.34,-321.97 449.96,-311.93 446.34,-321.88 453.34,-321.97" style=""/>
</g>
<!-- fn_0_basic_block_4 -->
<g id="node7" class="node" pointer-events="visible" data-name="fn_0_basic_block_4">

<polygon fill="lightgrey" stroke="black" points="139.86,-502.7 139.86,-618.7 266.14,-618.7 266.14,-502.7 139.86,-502.7" style=""/>
<text text-anchor="start" x="147.86" y="-602.1" font-family="Times,serif" font-size="14.00" style="">&lt;bb 4&gt;:</text>
<polyline fill="none" stroke="black" points="139.86,-593.9 266.14,-593.9" style=""/>
<text text-anchor="start" x="147.86" y="-577.3" font-family="Times,serif" font-size="14.00" style="">a = 0;</text>
<polyline fill="none" stroke="black" points="139.86,-569.1 266.14,-569.1" style=""/>
<text text-anchor="start" x="147.86" y="-552.5" font-family="Times,serif" font-size="14.00" style="">b = 1;</text>
<polyline fill="none" stroke="black" points="139.86,-544.3 266.14,-544.3" style=""/>
<text text-anchor="start" x="147.86" y="-527.7" font-family="Times,serif" font-size="14.00" style="">i = 2;</text>
<text text-anchor="start" x="147.86" y="-510.9" font-family="Times,serif" font-size="14.00" style="">goto &lt;bb 6&gt;; [INV]</text>
</g>
<!-- fn_0_basic_block_2&#45;&gt;fn_0_basic_block_4 -->
<g id="edge3" class="edge" data-name="fn_0_basic_block_2-&gt;fn_0_basic_block_4">

<path fill="none" stroke="black" stroke-width="2" d="M203,-691.5C203,-663.51 203,-653.8 203,-630.53" style=""/>
<polygon fill="black" stroke="black" stroke-width="2" points="206.5,-632.23 203,-622.23 199.5,-632.23 206.5,-632.23" style=""/>
</g>
<!-- fn_0_basic_block_8 -->
<g id="node9" class="node" pointer-events="visible" data-name="fn_0_basic_block_8">

<polygon fill="lightgrey" stroke="black" points="35.79,-88.5 35.79,-162.9 134.21,-162.9 134.21,-88.5 35.79,-88.5" style=""/>
<text text-anchor="start" x="43.79" y="-146.3" font-family="Times,serif" font-size="14.00" style="">&lt;bb 8&gt;:</text>
<polyline fill="none" stroke="black" points="35.79,-138.1 134.21,-138.1" style=""/>
<text text-anchor="start" x="43.79" y="-121.5" font-family="Times,serif" font-size="14.00" style="">&lt;L5&gt;:</text>
<polyline fill="none" stroke="black" points="35.79,-113.3 134.21,-113.3" style=""/>
<text text-anchor="start" x="43.79" y="-96.7" font-family="Times,serif" font-size="14.00" style="">return D.2361;</text>
</g>
<!-- fn_0_basic_block_3&#45;&gt;fn_0_basic_block_8 -->
<g id="edge4" class="edge" data-name="fn_0_basic_block_3-&gt;fn_0_basic_block_8">

<path fill="none" stroke="blue" stroke-width="2" d="M450,-214.9C450,-177.38 143.73,-199.75 92.29,-172.29" style=""/>
<polygon fill="blue" stroke="blue" stroke-width="2" points="95.97,-171.26 86.92,-165.74 90.55,-175.69 95.97,-171.26" style=""/>
</g>
<!-- fn_0_basic_block_4&#45;&gt;fn_0_basic_block_6 -->
<g id="edge5" class="edge" data-name="fn_0_basic_block_4-&gt;fn_0_basic_block_6">

<path fill="none" stroke="blue" stroke-width="2" d="M203,-502.2C203,-488.77 203,-482.89 203,-473.23" style=""/>
<polygon fill="blue" stroke="blue" stroke-width="2" points="206.5,-474.93 203,-464.93 199.5,-474.93 206.5,-474.93" style=""/>
</g>
<!-- fn_0_basic_block_7&#45;&gt;fn_0_basic_block_8 -->
<g id="edge9" class="edge" data-name="fn_0_basic_block_7-&gt;fn_0_basic_block_8">

<path fill="none" stroke="blue" stroke-width="2" d="M78,-235.9C78,-207.7 83.31,-198.18 84.68,-174.8" style=""/>
<polygon fill="blue" stroke="blue" stroke-width="2" points="88.13,-176.52 84.92,-166.43 81.14,-176.32 88.13,-176.52" style=""/>
</g>
<!-- fn_0_basic_block_8&#45;&gt;fn_0_basic_block_1 -->
<g id="edge10" class="edge" data-name="fn_0_basic_block_8-&gt;fn_0_basic_block_1">

<path fill="none" stroke="black" stroke-width="2" d="M85,-88C85,-76.62 85,-71.32 85,-63.45" style=""/>
<polygon fill="black" stroke="black" stroke-width="2" points="88.5,-65.03 85,-55.03 81.5,-65.03 88.5,-65.03" style=""/>
</g>
<!-- fn_1_basic_block_0 -->
<g id="node10" class="node" pointer-events="visible" data-name="fn_1_basic_block_0">

<polygon fill="white" stroke="black" points="818,-901.8 756.75,-883.8 818,-865.8 879.25,-883.8 818,-901.8" style=""/>
<polyline fill="none" stroke="black" points="768.26,-887.18 768.26,-880.42" style=""/>
<polyline fill="none" stroke="black" points="806.49,-869.18 829.51,-869.18" style=""/>
<polyline fill="none" stroke="black" points="867.74,-880.42 867.74,-887.18" style=""/>
<polyline fill="none" stroke="black" points="829.51,-898.42 806.49,-898.42" style=""/>
<text text-anchor="middle" x="818" y="-879.6" font-family="Times,serif" font-size="14.00" style="">ENTRY</text>
</g>
<!-- fn_1_basic_block_1 -->
<g id="node11" class="node" pointer-events="visible" data-name="fn_1_basic_block_1">

<polygon fill="white" stroke="black" points="818,-428.9 771.09,-410.9 818,-392.9 864.91,-410.9 818,-428.9" style=""/>
<polyline fill="none" stroke="black" points="782.3,-415.2 782.3,-406.6" style=""/>
<polyline fill="none" stroke="black" points="806.8,-397.2 829.2,-397.2" style=""/>
<polyline fill="none" stroke="black" points="853.7,-406.6 853.7,-415.2" style=""/>
<polyline fill="none" stroke="black" points="829.2,-424.6 806.8,-424.6" style=""/>
<text text-anchor="middle" x="818" y="-406.7" font-family="Times,serif" font-size="14.00" style="">EXIT</text>
</g>
<!-- fn_1_basic_block_0&#45;&gt;fn_1_basic_block_1 -->
<!-- fn_1_basic_block_2 -->
<g id="node12" class="node" pointer-events="visible" data-name="fn_1_basic_block_2">

<polygon fill="lightgrey" stroke="black" points="658.09,-655.7 658.09,-829.3 977.91,-829.3 977.91,-655.7 658.09,-655.7" style=""/>
<text text-anchor="start" x="666.09" y="-812.7" font-family="Times,serif" font-size="14.00" style="">&lt;bb 2&gt;:</text>
<polyline fill="none" stroke="black" points="658.09,-804.5 977.91,-804.5" style=""/>
<text text-anchor="start" x="666.09" y="-787.9" font-family="Times,serif" font-size="14.00" style="">n = 10;</text>
<polyline fill="none" stroke="black" points="658.09,-779.7 977.91,-779.7" style=""/>
<text text-anchor="start" x="666.09" y="-763.1" font-family="Times,serif" font-size="14.00" style="">_1 = fibonacci (n);</text>
<polyline fill="none" stroke="black" points="658.09,-754.9 977.91,-754.9" style=""/>
<text text-anchor="start" x="666.09" y="-738.3" font-family="Times,serif" font-size="14.00" style="">printf ("The %dth Fibonacci number is: %d\n", n, _1);</text>
<polyline fill="none" stroke="black" points="658.09,-730.1 977.91,-730.1" style=""/>
<text text-anchor="start" x="666.09" y="-713.5" font-family="Times,serif" font-size="14.00" style="">_2 = n * n;</text>
<polyline fill="none" stroke="black" points="658.09,-705.3 977.91,-705.3" style=""/>
<text text-anchor="start" x="666.09" y="-688.7" font-family="Times,serif" font-size="14.00" style="">printf ("SQUARE(%d) = %d\n", n, _2);</text>
<polyline fill="none" stroke="black" points="658.09,-680.5 977.91,-680.5" style=""/>
<text text-anchor="start" x="666.09" y="-663.9" font-family="Times,serif" font-size="14.00" style="">D.2363 = 0;</text>
</g>
<!-- fn_1_basic_block_0&#45;&gt;fn_1_basic_block_2 -->
<g id="edge12" class="edge" data-name="fn_1_basic_block_0-&gt;fn_1_basic_block_2">

<path fill="none" stroke="blue" stroke-width="2" d="M818,-865.8C818,-854.42 818,-849.12 818,-841.25" style=""/>
<polygon fill="blue" stroke="blue" stroke-width="2" points="821.5,-842.83 818,-832.83 814.5,-842.83 821.5,-842.83" style=""/>
</g>
<!-- fn_1_basic_block_3 -->
<g id="node13" class="node" pointer-events="visible" data-name="fn_1_basic_block_3">

<polygon fill="lightgrey" stroke="black" points="768.79,-523.5 768.79,-597.9 867.21,-597.9 867.21,-523.5 768.79,-523.5" style=""/>
<text text-anchor="start" x="776.79" y="-581.3" font-family="Times,serif" font-size="14.00" style="">&lt;bb 3&gt;:</text>
<polyline fill="none" stroke="black" points="768.79,-573.1 867.21,-573.1" style=""/>
<text text-anchor="start" x="776.79" y="-556.5" font-family="Times,serif" font-size="14.00" style="">&lt;L0&gt;:</text>
<polyline fill="none" stroke="black" points="768.79,-548.3 867.21,-548.3" style=""/>
<text text-anchor="start" x="776.79" y="-531.7" font-family="Times,serif" font-size="14.00" style="">return D.2363;</text>
</g>
<!-- fn_1_basic_block_2&#45;&gt;fn_1_basic_block_3 -->
<g id="edge13" class="edge" data-name="fn_1_basic_block_2-&gt;fn_1_basic_block_3">

<path fill="none" stroke="blue" stroke-width="2" d="M818,-655.2C818,-634.4 818,-626.53 818,-610.17" style=""/>
<polygon fill="blue" stroke="blue" stroke-width="2" points="821.5,-611.73 818,-601.73 814.5,-611.73 821.5,-611.73" style=""/>
</g>
<!-- fn_1_basic_block_3&#45;&gt;fn_1_basic_block_1 -->
<g id="edge14" class="edge" data-name="fn_1_basic_block_3-&gt;fn_1_basic_block_1">

<path fill="none" stroke="black" stroke-width="2" d="M818,-522.7C818,-485.48 818,-473.45 818,-441.16" style=""/>
<polygon fill="black" stroke="black" stroke-width="2" points="821.5,-442.93 818,-432.93 814.5,-442.93 821.5,-442.93" style=""/>
</g>
</g>
</svg>